<!--?xml version="1.0" encoding="utf-8"?-->
<!-- Generator: Adobe Illustrator 18.1.1, SVG Export Plug-In . SVG Version: 6.00 Build 0)  -->

<svg version="1.1" id="_x31_0" xmlns="http://www.w3.org/2000/svg" xmlns:xlink="http://www.w3.org/1999/xlink" x="0px" y="0px" viewBox="0 0 512 512" style="width: 48px; height: 48px; opacity: 1;" xml:space="preserve">
<style type="text/css">
	.st0{fill:#374149;}
</style>
<g>
	<path class="st0" d="M476.266,205.706c-4.047-17.809,18.18-44.746,10.43-60.813c-7.878-16.328-42.875-15.695-54.078-29.722
		c-0.457-0.578-0.835-1.234-1.234-1.875c-0.379-0.606-0.738-1.23-1.066-1.89c-7.727-15.641-1.719-45.195-14.688-55.555
		c-13.09-10.453-41.156,2.469-58.125-2.152c-0.246-0.066-0.473-0.149-0.711-0.222c-0.957-0.297-1.894-0.622-2.774-1.043
		c-16.066-7.754-23.242-42.02-41.05-46.066c-17.246-3.922-38.535,23.75-56.969,23.75c-18.434,0-39.722-27.671-56.969-23.75
		c-17.809,4.046-24.984,38.313-41.05,46.066c-0.879,0.422-1.817,0.746-2.778,1.043c-0.234,0.074-0.457,0.156-0.699,0.222
		c-16.969,4.617-45.039-8.305-58.125,2.148c-12.973,10.356-6.965,39.91-14.688,55.551c-0.328,0.66-0.691,1.289-1.07,1.898
		c-0.398,0.641-0.773,1.297-1.234,1.871c-11.203,14.023-46.199,13.394-54.078,29.722c-7.754,16.066,14.473,43.008,10.426,60.821
		C31.813,222.951,0,237.565,0,255.998c0,18.438,31.813,33.046,35.734,50.293c4.047,17.809-18.18,44.746-10.43,60.813
		c7.878,16.332,42.875,15.695,54.078,29.726c0.457,0.574,0.835,1.23,1.23,1.867c0.382,0.61,0.746,1.238,1.074,1.906
		c7.719,15.641,1.715,45.187,14.688,55.546c13.09,10.454,41.164-2.472,58.129,2.149c0.238,0.066,0.461,0.148,0.691,0.218
		c0.961,0.297,1.902,0.622,2.786,1.047c16.066,7.75,23.242,42.019,41.054,46.07c17.246,3.918,38.531-23.754,56.965-23.754
		c18.434,0,39.722,27.672,56.969,23.754c17.809-4.051,24.984-38.321,41.05-46.066c0.879-0.426,1.825-0.75,2.786-1.047
		c0.23-0.074,0.453-0.152,0.687-0.218c16.965-4.629,45.039,8.301,58.129-2.149c12.973-10.359,6.965-39.914,14.692-55.554
		c0.324-0.66,0.687-1.286,1.066-1.894c0.398-0.637,0.777-1.297,1.234-1.871c11.203-14.031,46.203-13.398,54.078-29.73
		c7.754-16.066-14.473-43.004-10.426-60.813c3.922-17.25,35.734-31.859,35.734-50.293S480.187,222.951,476.266,205.706z
		 M199.95,298.291h-16.653l-29.758-46.113v46.113h-19.098v-84.59h16.652l16.137,24.957l13.457,21.058l0.004-0.246l0.157,0.246
		v-46.015h19.102V298.291z M283.957,231.084h-37.718v15.676v0.047v0.16h32.121v17.375h-32.121v16.363v0.05v0.16h37.718v17.375
		h-56.812v-84.59h56.812V231.084z M372.93,298.291h-14.543l-12.406-44.957l-12.406,44.957h-14.539l-16.652-68.566l-3.852-16.023
		h18.363l5.43,24.355l4.703,21.75l0.078-0.301l0.074,0.339l12.156-46.144h13.289l6.426,24.382l5.582,21.758l0.07-0.301l0.086,0.336
		l10.387-46.176h14.992l3.402,0.039L372.93,298.291z" style="fill: rgb(223, 86, 86);"></path>
</g>
</svg>
